<svg width="1024" height="1024" viewBox="0 0 1024 1024" fill="none" xmlns="http://www.w3.org/2000/svg">
<g clip-path="url(#clip0_211_356)">
<rect x="2.63281" y="2.63281" width="1018.73" height="1018.73" rx="184" fill="white"/>
<rect x="2.63281" y="2.63281" width="1018.73" height="1018.73" rx="184" fill="url(#paint0_linear_211_356)"/>
<path d="M254.059 288.153C194.471 347.743 194.471 444.697 254.059 504.287L511.672 761.898V826.911L221.565 536.804C182.751 497.99 163.355 447.111 163.355 396.232C163.355 345.353 182.751 294.474 221.565 255.659C260.378 216.822 311.258 197.427 362.136 197.427C413.016 197.427 463.894 216.822 502.708 255.659L511.672 264.599V298.748H480.831L479.176 297.116L470.214 288.153C441.351 259.291 402.972 243.388 362.136 243.388C321.324 243.388 282.945 259.291 254.059 288.153Z" fill="#282828"/>
<path d="M861.39 298.034C861.505 298.287 861.619 298.517 861.735 298.748C864.745 305.365 869.893 310.788 876.303 314.121C880.762 316.442 885.818 317.774 891.195 317.774C909.074 317.774 923.576 303.275 923.576 285.396C923.576 267.517 909.074 253.039 891.195 253.039C878.143 253.039 866.906 260.783 861.804 271.93L861.827 270.894L816.21 270.182C814.05 267.538 811.822 264.942 809.522 262.369C807.247 259.863 804.903 257.382 802.467 254.969C792.771 245.248 782.313 236.769 771.283 229.484C765.767 225.853 760.113 222.519 754.345 219.488C748.578 216.453 742.696 213.718 736.697 211.284C730.722 208.87 724.655 206.732 718.497 204.917C716.199 204.251 713.878 203.607 711.557 203.01C706.915 201.815 702.227 200.78 697.516 199.931C695.148 199.517 692.804 199.126 690.437 198.782C684.117 197.862 677.776 197.265 671.432 196.965C668.261 196.805 665.068 196.736 661.894 196.736C658.725 196.736 655.53 196.805 652.358 196.965C642.822 197.425 633.33 198.551 623.931 200.368C620.784 200.987 617.68 201.653 614.555 202.412C608.352 203.93 602.191 205.768 596.125 207.883C592.172 209.261 588.265 210.824 584.382 212.454C579.349 214.592 574.339 216.913 569.445 219.488C552.14 228.587 535.87 240.4 521.324 254.969L511.672 264.597V298.748H861.39V298.034ZM813.958 418.591H786.61C777.717 418.591 770.525 411.397 770.525 402.504C770.525 393.634 777.717 386.419 786.61 386.419H813.958C814.096 386.419 814.233 386.44 814.372 386.44C823.059 386.671 830.043 393.772 830.043 402.504C830.043 411.397 822.828 418.591 813.958 418.591ZM746.649 418.591H719.324C710.431 418.591 703.237 411.397 703.237 402.504C703.237 393.634 710.431 386.419 719.324 386.419H746.649C755.542 386.419 762.734 393.634 762.734 402.504C762.734 411.397 755.542 418.591 746.649 418.591ZM679.361 418.591H664.423C655.53 418.591 648.336 411.397 648.336 402.504C648.336 393.634 655.53 386.419 664.423 386.419H679.361C688.232 386.419 695.447 393.634 695.447 402.504C695.447 411.397 688.232 418.591 679.361 418.591ZM613.796 434.884C595.919 434.884 581.441 420.383 581.441 402.504C581.441 384.625 595.919 370.149 613.796 370.149C631.675 370.149 646.177 384.625 646.177 402.504C646.177 420.383 631.675 434.884 613.796 434.884ZM563.976 614.224H591.943C600.836 614.224 608.028 621.44 608.028 630.31C608.028 639.205 600.836 646.397 591.943 646.397H563.976C555.082 646.397 547.889 639.205 547.889 630.31C547.889 621.44 555.082 614.224 563.976 614.224ZM632.847 614.224H660.815C669.708 614.224 676.902 621.44 676.902 630.31C676.902 639.205 669.708 646.397 660.815 646.397H632.847C631.125 646.397 629.493 646.122 627.953 645.639C621.45 643.57 616.762 637.504 616.762 630.31C616.762 621.44 623.954 614.224 632.847 614.224ZM921.301 463.448C908.224 463.448 897.009 471.193 891.886 482.34L891.908 481.327L841.627 480.523C843.234 477.168 844.752 473.766 846.13 470.342C846.889 468.481 847.624 466.597 848.338 464.713C852.52 453.383 855.645 441.755 857.712 429.965C858.059 428.014 858.357 426.036 858.655 424.084C858.908 422.244 859.092 420.429 859.298 418.591H853.898C845.028 418.591 837.812 411.397 837.812 402.504C837.812 393.634 845.028 386.419 853.898 386.419H860.47C860.38 384.075 860.218 381.73 860.033 379.386C858.701 362.955 855.322 346.685 849.922 330.921H511.672V614.224H523.07C531.963 614.224 539.155 621.44 539.155 630.31C539.155 639.205 531.963 646.397 523.07 646.397H511.672V826.909L694.092 644.49C691.586 643.135 689.471 641.112 687.978 638.676C686.484 636.239 685.634 633.389 685.634 630.31C685.634 621.44 692.827 614.224 701.721 614.224H724.357L797.228 541.352H593.92C588.335 551.073 577.855 557.624 565.86 557.624C547.981 557.624 533.48 543.122 533.48 525.267C533.48 507.388 547.981 492.888 565.86 492.888C577.855 492.888 588.335 499.437 593.92 509.179H891.472V508.446C891.586 508.698 891.725 508.927 891.817 509.179C894.827 515.775 899.975 521.198 906.386 524.531C910.843 526.852 915.924 528.186 921.301 528.186C939.157 528.186 953.656 513.685 953.656 495.829C953.656 477.95 939.157 463.448 921.301 463.448Z" fill="#FF4343"/>
</g>
<defs>
<linearGradient id="paint0_linear_211_356" x1="512" y1="2.63281" x2="512" y2="1021.37" gradientUnits="userSpaceOnUse">
<stop stop-opacity="0"/>
<stop offset="1" stop-opacity="0.2"/>
</linearGradient>
<clipPath id="clip0_211_356">
<rect width="1024" height="1024" fill="white"/>
</clipPath>
</defs>
</svg>
