<svg width="1024" height="1024" viewBox="0 0 1024 1024" fill="none" xmlns="http://www.w3.org/2000/svg">
<g filter="url(#filter0_d_208_266)">
<rect x="100" y="100" width="824" height="824" rx="184" fill="white"/>
<rect x="100" y="100" width="824" height="824" rx="184" fill="url(#paint0_linear_208_266)"/>
</g>
<path d="M303.365 330.942C255.168 379.141 255.168 457.562 303.365 505.761L511.735 714.129V766.714L277.083 532.062C245.688 500.668 230 459.514 230 418.361C230 377.208 245.688 336.054 277.083 304.66C308.476 273.246 349.631 257.558 390.783 257.558C431.937 257.558 473.089 273.246 504.484 304.66L511.735 311.89V339.512H486.789L485.451 338.192L478.201 330.942C454.856 307.597 423.813 294.734 390.783 294.734C357.772 294.734 326.729 307.597 303.365 330.942Z" fill="#282828"/>
<path d="M794.603 338.935C794.696 339.139 794.788 339.325 794.882 339.512C797.316 344.864 801.48 349.251 806.666 351.947C810.272 353.824 814.362 354.901 818.711 354.901C833.172 354.901 844.902 343.173 844.902 328.712C844.902 314.251 833.172 302.54 818.711 302.54C808.154 302.54 799.064 308.804 794.938 317.82L794.956 316.983L758.059 316.407C756.312 314.268 754.51 312.168 752.65 310.087C750.81 308.06 748.914 306.053 746.943 304.101C739.1 296.239 730.642 289.38 721.72 283.488C717.259 280.551 712.686 277.855 708.02 275.403C703.355 272.948 698.598 270.736 693.746 268.767C688.912 266.815 684.006 265.085 679.024 263.617C677.166 263.079 675.288 262.557 673.411 262.075C669.656 261.108 665.864 260.271 662.054 259.584C660.139 259.249 658.243 258.933 656.328 258.655C651.216 257.911 646.087 257.428 640.956 257.185C638.391 257.056 635.808 257 633.242 257C630.678 257 628.094 257.056 625.528 257.185C617.815 257.557 610.138 258.468 602.535 259.937C599.99 260.439 597.479 260.977 594.951 261.591C589.934 262.819 584.951 264.305 580.044 266.016C576.847 267.131 573.687 268.395 570.546 269.713C566.475 271.443 562.423 273.32 558.464 275.403C544.467 282.763 531.307 292.317 519.542 304.101L511.735 311.889V339.512H794.603V338.935ZM756.238 436.447H734.118C726.924 436.447 721.107 430.628 721.107 423.435C721.107 416.26 726.924 410.424 734.118 410.424H756.238C756.35 410.424 756.46 410.441 756.572 410.441C763.599 410.628 769.248 416.372 769.248 423.435C769.248 430.628 763.412 436.447 756.238 436.447ZM701.795 436.447H679.694C672.5 436.447 666.682 430.628 666.682 423.435C666.682 416.26 672.5 410.424 679.694 410.424H701.795C708.988 410.424 714.806 416.26 714.806 423.435C714.806 430.628 708.988 436.447 701.795 436.447ZM647.37 436.447H635.287C628.094 436.447 622.275 430.628 622.275 423.435C622.275 416.26 628.094 410.424 635.287 410.424H647.37C654.544 410.424 660.38 416.26 660.38 423.435C660.38 430.628 654.544 436.447 647.37 436.447ZM594.338 449.625C579.878 449.625 568.167 437.896 568.167 423.435C568.167 408.973 579.878 397.264 594.338 397.264C608.799 397.264 620.528 408.973 620.528 423.435C620.528 437.896 608.799 449.625 594.338 449.625ZM554.04 594.684H576.662C583.855 594.684 589.672 600.52 589.672 607.695C589.672 614.889 583.855 620.707 576.662 620.707H554.04C546.847 620.707 541.028 614.889 541.028 607.695C541.028 600.52 546.847 594.684 554.04 594.684ZM609.747 594.684H632.368C639.562 594.684 645.38 600.52 645.38 607.695C645.38 614.889 639.562 620.707 632.368 620.707H609.747C608.354 620.707 607.034 620.484 605.788 620.093C600.528 618.42 596.736 613.513 596.736 607.695C596.736 600.52 602.554 594.684 609.747 594.684ZM843.062 472.729C832.484 472.729 823.414 478.993 819.27 488.009L819.287 487.191L778.618 486.54C779.918 483.827 781.146 481.075 782.26 478.305C782.874 476.8 783.468 475.276 784.046 473.752C787.428 464.588 789.956 455.183 791.628 445.647C791.908 444.068 792.15 442.468 792.391 440.889C792.595 439.401 792.744 437.933 792.911 436.447H788.543C781.368 436.447 775.532 430.628 775.532 423.435C775.532 416.26 781.368 410.424 788.543 410.424H793.859C793.786 408.528 793.655 406.632 793.506 404.736C792.428 391.445 789.695 378.285 785.327 365.535H511.735V594.684H520.954C528.147 594.684 533.964 600.52 533.964 607.695C533.964 614.889 528.147 620.707 520.954 620.707H511.735V766.713L659.284 619.164C657.258 618.068 655.547 616.432 654.339 614.461C653.131 612.491 652.443 610.185 652.443 607.695C652.443 600.52 658.262 594.684 665.455 594.684H683.764L742.706 535.741H578.26C573.743 543.604 565.267 548.903 555.564 548.903C541.103 548.903 529.374 537.173 529.374 522.731C529.374 508.269 541.103 496.541 555.564 496.541C565.267 496.541 573.743 501.839 578.26 509.719H818.935V509.125C819.027 509.329 819.139 509.515 819.214 509.719C821.648 515.053 825.812 519.44 830.998 522.136C834.603 524.013 838.712 525.092 843.062 525.092C857.504 525.092 869.232 513.363 869.232 498.92C869.232 484.459 857.504 472.729 843.062 472.729Z" fill="#FF4343"/>
<defs>
<filter id="filter0_d_208_266" x="78" y="89" width="868" height="868" filterUnits="userSpaceOnUse" color-interpolation-filters="sRGB">
<feFlood flood-opacity="0" result="BackgroundImageFix"/>
<feColorMatrix in="SourceAlpha" type="matrix" values="0 0 0 0 0 0 0 0 0 0 0 0 0 0 0 0 0 0 127 0" result="hardAlpha"/>
<feOffset dy="11"/>
<feGaussianBlur stdDeviation="11"/>
<feColorMatrix type="matrix" values="0 0 0 0 0 0 0 0 0 0 0 0 0 0 0 0 0 0 0.28 0"/>
<feBlend mode="normal" in2="BackgroundImageFix" result="effect1_dropShadow_208_266"/>
<feBlend mode="normal" in="SourceGraphic" in2="effect1_dropShadow_208_266" result="shape"/>
</filter>
<linearGradient id="paint0_linear_208_266" x1="512" y1="100" x2="512" y2="924" gradientUnits="userSpaceOnUse">
<stop stop-opacity="0"/>
<stop offset="1" stop-opacity="0.2"/>
</linearGradient>
</defs>
</svg>
