<svg width="676" height="676" viewBox="0 0 676 676" fill="none" xmlns="http://www.w3.org/2000/svg">
<g filter="url(#filter0_d_196_23)">
<rect x="99" y="98" width="479" height="479" rx="107.15" fill="white"/>
<circle cx="578" cy="463" r="42" fill="#FF4343"/>
<circle cx="578" cy="296" r="42" fill="#1E1E1E"/>
<circle cx="99" cy="463" r="42" fill="#FF4343"/>
<circle cx="99" cy="331" r="42" fill="#1E1E1E"/>
<path fill-rule="evenodd" clip-rule="evenodd" d="M406.56 98H270.44C210.43 98 180.426 98 157.505 109.679C137.343 119.951 120.951 136.343 110.679 156.505C105.485 166.697 102.602 178.29 101 193.3V210H577.235C576.103 186.394 573.293 170.187 566.321 156.505C556.049 136.343 539.657 119.951 519.495 109.679C496.574 98 466.57 98 406.56 98Z" fill="#F2F2F2"/>
<path d="M98 329.5C98 329.5 172 184 301 295.5" stroke="#1E1E1E" stroke-width="15" stroke-linecap="round" stroke-linejoin="round"/>
<path d="M259.5 463H566" stroke="#FF4343" stroke-width="15" stroke-linecap="round" stroke-linejoin="round" stroke-dasharray="32 32"/>
<path d="M190 484.426L232.426 442" stroke="#FF4343" stroke-width="15" stroke-linecap="round" stroke-linejoin="round"/>
<path d="M190 442.426L232.426 484.853" stroke="#FF4343" stroke-width="15" stroke-linecap="round" stroke-linejoin="round"/>
<path d="M272.342 304.006L330.297 288.477" stroke="#1E1E1E" stroke-width="15" stroke-linecap="round" stroke-linejoin="round"/>
<path d="M293.342 267.633L308.871 325.589" stroke="#1E1E1E" stroke-width="15" stroke-linecap="round" stroke-linejoin="round"/>
</g>
<defs>
<filter id="filter0_d_196_23" x="51.7" y="90.7" width="581.6" height="501.6" filterUnits="userSpaceOnUse" color-interpolation-filters="sRGB">
<feFlood flood-opacity="0" result="BackgroundImageFix"/>
<feColorMatrix in="SourceAlpha" type="matrix" values="0 0 0 0 0 0 0 0 0 0 0 0 0 0 0 0 0 0 127 0" result="hardAlpha"/>
<feOffset dx="4" dy="4"/>
<feGaussianBlur stdDeviation="4.65"/>
<feComposite in2="hardAlpha" operator="out"/>
<feColorMatrix type="matrix" values="0 0 0 0 0 0 0 0 0 0 0 0 0 0 0 0 0 0 0.1 0"/>
<feBlend mode="normal" in2="BackgroundImageFix" result="effect1_dropShadow_196_23"/>
<feBlend mode="normal" in="SourceGraphic" in2="effect1_dropShadow_196_23" result="shape"/>
</filter>
</defs>
</svg>
